HIERARCHY
ROOT Hips
{
	OFFSET 0.00000 0.00000 0.00000
	CHANNELS 6 Xposition Yposition Zposition Zrotation Yrotation Xrotation 
	JOINT LHipJoint
	{
		OFFSET 0 0 0
		CHANNELS 3 Zrotation Yrotation Xrotation
		JOINT LeftUpLeg
		{
			OFFSET 1.55020 -1.87941 0.79896
			CHANNELS 3 Zrotation Yrotation Xrotation
			JOINT LeftLeg
			{
				OFFSET 2.65269 -7.28822 0.00000
				CHANNELS 3 Zrotation Yrotation Xrotation
				JOINT LeftFoot
				{
					OFFSET 2.61200 -7.17641 0.00000
					CHANNELS 3 Zrotation Yrotation Xrotation
					JOINT LeftToeBase
					{
						OFFSET 0.09338 -0.25656 1.92461
						CHANNELS 3 Zrotation Yrotation Xrotation
						End Site
						{
							OFFSET 0.00000 -0.00000 0.98480
						}
					}
				}
			}
		}
	}
	JOINT RHipJoint
	{
		OFFSET 0 0 0
		CHANNELS 3 Zrotation Yrotation Xrotation
		JOINT RightUpLeg
		{
			OFFSET -1.56866 -1.87941 0.79895
			CHANNELS 3 Zrotation Yrotation Xrotation
			JOINT RightLeg
			{
				OFFSET -2.60199 -7.14892 0.00000
				CHANNELS 3 Zrotation Yrotation Xrotation
				JOINT RightFoot
				{
					OFFSET -2.62841 -7.22151 0.00000
					CHANNELS 3 Zrotation Yrotation Xrotation
					JOINT RightToeBase
					{
						OFFSET -0.19532 -0.53663 1.93132
						CHANNELS 3 Zrotation Yrotation Xrotation
						End Site
						{
							OFFSET -0.00000 -0.00000 1.00896
						}
					}
				}
			}
		}
	}
	JOINT LowerBack
	{
		OFFSET 0 0 0
		CHANNELS 3 Zrotation Yrotation Xrotation
		JOINT Spine
		{
			OFFSET 0.06381 2.07806 -0.22112
			CHANNELS 3 Zrotation Yrotation Xrotation
			JOINT Spine1
			{
				OFFSET -0.02881 2.08890 0.01825
				CHANNELS 3 Zrotation Yrotation Xrotation
				JOINT Neck
				{
					OFFSET 0 0 0
					CHANNELS 3 Zrotation Yrotation Xrotation
					JOINT Neck1
					{
						OFFSET 0.02418 1.74325 -0.02023
						CHANNELS 3 Zrotation Yrotation Xrotation
						JOINT Head
						{
							OFFSET -0.01704 1.71677 0.04090
							CHANNELS 3 Zrotation Yrotation Xrotation
							End Site
							{
								OFFSET -0.00946 1.78238 0.01684
							}
						}
					}
				}
				JOINT LeftShoulder
				{
					OFFSET 0 0 0
					CHANNELS 3 Zrotation Yrotation Xrotation
					JOINT LeftArm
					{
						OFFSET 3.39783 1.34157 0.16610
						CHANNELS 3 Zrotation Yrotation Xrotation
						JOINT LeftForeArm
						{
							OFFSET 5.15218 -0.00000 0.00000
							CHANNELS 3 Zrotation Yrotation Xrotation
							JOINT LeftHand
							{
								OFFSET 3.49459 -0.00000 0.00000
								CHANNELS 3 Zrotation Yrotation Xrotation
								JOINT LeftFingerBase
								{
									OFFSET 0 0 0
									CHANNELS 3 Zrotation Yrotation Xrotation
									JOINT LeftHandIndex1
									{
										OFFSET 0.51247 -0.00000 0.00000
										CHANNELS 3 Zrotation Yrotation Xrotation
										End Site
										{
											OFFSET 0.41316 -0.00000 0.00000
										}
									}
								}
								JOINT LThumb
								{
									OFFSET 0 0 0
									CHANNELS 3 Zrotation Yrotation Xrotation
									End Site
									{
										OFFSET 0.41947 -0.00000 0.41947
									}
								}
							}
						}
					}
				}
				JOINT RightShoulder
				{
					OFFSET 0 0 0
					CHANNELS 3 Zrotation Yrotation Xrotation
					JOINT RightArm
					{
						OFFSET -3.26224 1.05509 0.01188
						CHANNELS 3 Zrotation Yrotation Xrotation
						JOINT RightForeArm
						{
							OFFSET -5.44344 -0.00000 0.00000
							CHANNELS 3 Zrotation Yrotation Xrotation
							JOINT RightHand
							{
								OFFSET -3.58403 -0.00000 0.00000
								CHANNELS 3 Zrotation Yrotation Xrotation
								JOINT RightFingerBase
								{
									OFFSET 0 0 0
									CHANNELS 3 Zrotation Yrotation Xrotation
									JOINT RightHandIndex1
									{
										OFFSET -0.34249 -0.00000 0.00000
										CHANNELS 3 Zrotation Yrotation Xrotation
										End Site
										{
											OFFSET -0.27612 -0.00000 0.00000
										}
									}
								}
								JOINT RThumb
								{
									OFFSET 0 0 0
									CHANNELS 3 Zrotation Yrotation Xrotation
									End Site
									{
										OFFSET -0.28034 -0.00000 0.28034
									}
								}
							}
						}
					}
				}
			}
		}
	}
}
MOTION
Frames: 16
Frame Time: .0083333
3.2986 17.1533 -0.1132 48.6122 -102.0790 -52.1921 0.0000 0.0000 0.0000 -9.5890 -8.0019 -30.5656 3.4654 11.4128 33.6851 0.2108 -1.4746 -8.2817 4.1942 -12.4144 -37.2143 0.0000 0.0000 0.0000 28.8316 -6.9901 29.1732 0.0000 0.0000 -0.0000 -0.3630 3.3026 -10.7252 -2.8518 10.4511 -30.4503 10.9910 2.1054 9.0721 0.2206 3.7775 1.6551 -6.3428 1.7686 -2.6453 5.0432 0.0297 0.7511 -4.4270 0.0141 -2.2803 -2.2653 0.0054 -0.8441 0.0000 0.0000 0.0000 -87.8288 31.7307 -66.5039 5.5705 -9.5439 -0.4654 -0.0000 -0.0000 65.5124 22.9673 19.7134 8.1356 -7.1250 0.0000 -0.0000 -5.4616 51.1641 -0.8315 0.0000 0.0000 0.0000 84.0436 29.3926 53.0994 -31.9774 42.5291 -12.7255 0.0000 0.0000 13.9986 -23.1968 -36.2346 14.2142 7.1250 -0.0000 -0.0000 14.7764 -68.0044 -8.2364
2.8403 17.1881 -0.1019 48.1820 -101.4020 -51.4855 0.0000 0.0000 0.0000 -10.1832 -8.8815 -30.8198 3.8296 11.9301 35.4852 0.1444 -0.4704 -7.0240 1.5629 -7.8892 -22.3779 0.0000 0.0000 0.0000 28.1571 -6.7861 30.4315 0.0000 0.0000 -0.0000 -0.2320 2.6538 -8.5675 -3.3449 11.2335 -33.0714 10.2175 2.1054 8.6633 -0.2599 3.6847 1.2950 -6.4009 1.7142 -2.8354 5.2959 -0.0879 0.7855 -3.6898 -0.1105 -1.8804 -2.0652 -0.0616 -0.7281 0.0000 0.0000 0.0000 -87.5919 32.0284 -69.1916 5.4217 -9.2943 -0.4410 -0.0000 -0.0000 68.0408 22.3986 18.8652 7.5907 -7.1250 0.0000 -0.0000 -5.7908 50.1745 -0.7408 0.0000 0.0000 0.0000 84.7652 27.0721 52.4479 -33.3417 43.5910 -13.6571 0.0000 0.0000 14.1393 -23.6825 -36.3977 14.5883 7.1250 -0.0000 -0.0000 14.3382 -68.3097 -8.0870
2.3809 17.1893 -0.0902 46.6907 -100.5310 -49.7775 0.0000 0.0000 0.0000 -11.2815 -9.5167 -30.6561 4.2226 12.4508 37.3461 0.0784 0.7336 -5.6118 0.4290 -4.2033 -11.6493 0.0000 0.0000 0.0000 27.9361 -5.1703 27.1528 -0.2600 -3.2804 9.0605 -0.3207 2.4331 -10.1327 -3.8263 11.9256 -35.4694 9.3039 2.1580 8.4299 -0.9196 3.6653 0.8576 -6.5880 1.6871 -3.1853 5.4266 -0.2518 0.7480 -2.6187 -0.3041 -1.2534 -1.7351 -0.1616 -0.5298 0.0000 0.0000 0.0000 -86.9200 31.9728 -72.7818 5.2640 -9.0292 -0.4159 -0.0000 -0.0000 72.0891 21.5419 18.5771 7.1680 -7.1250 0.0000 -0.0000 -6.5494 49.7335 -0.7673 0.0000 0.0000 0.0000 85.7454 24.5743 51.7949 -33.9610 44.0558 -14.0859 0.0000 0.0000 13.9910 -24.3849 -36.5805 15.1174 7.1250 -0.0000 -0.0000 13.6365 -68.7028 -7.8063
1.9306 17.1920 -0.0769 43.8363 -99.4686 -46.8327 0.0000 0.0000 0.0000 -13.0539 -9.7913 -29.7921 4.5448 12.8521 38.8174 0.1010 0.1683 -6.0646 0.6427 -5.1288 -14.2762 0.0000 0.0000 0.0000 27.3821 -3.8815 24.7751 -0.8441 -5.8602 16.3794 -0.2635 2.0971 -9.1946 -4.2390 12.4718 -37.4220 8.0473 2.2352 8.2286 -1.5522 3.6330 0.5502 -6.5459 1.6673 -3.4384 5.4038 -0.3557 0.5396 -1.5869 -0.4463 -0.5585 -1.3964 -0.2315 -0.2795 0.0000 -0.0000 0.0000 -86.3087 31.2354 -77.5522 5.1401 -8.8206 -0.3967 -0.0000 -0.0000 77.9299 20.4924 18.5051 6.7648 -7.1250 0.0000 -0.0000 -7.5471 49.4927 -0.8403 0.0000 -0.0000 0.0000 86.5244 21.5393 50.7833 -34.7052 44.6005 -14.6059 0.0000 0.0000 14.0522 -24.6119 -36.4069 15.2100 7.1250 -0.0000 -0.0000 13.1536 -68.6061 -7.4976
1.5080 17.1674 -0.0589 40.3584 -98.4320 -43.2987 0.0000 0.0000 0.0000 -14.7324 -10.4615 -28.8224 4.8349 13.1954 40.1046 0.1482 -0.3335 -7.1596 0.6417 -5.1250 -14.2654 0.0000 0.0000 0.0000 26.8092 -2.5598 22.3599 -1.7253 -8.2687 23.5334 -0.1437 1.5420 -6.7865 -4.3518 12.6144 -37.9417 6.7241 2.2881 8.1112 -2.0519 3.5619 0.3314 -6.3201 1.6344 -3.6618 5.4209 -0.4029 0.3476 -0.8910 -0.5255 -0.0059 -1.1775 -0.2666 -0.0768 -0.0000 -0.0000 0.0000 -85.9325 29.8167 -83.6490 5.0765 -8.7134 -0.3870 -0.0000 -0.0000 85.5137 19.5599 18.2438 6.3469 -7.1250 0.0000 -0.0000 -8.3697 49.0781 -0.8471 -0.0000 -0.0000 0.0000 87.0291 18.6161 50.0375 -34.8082 44.6747 -14.6783 0.0000 0.0000 13.8319 -24.8771 -35.5497 15.0881 7.1250 -0.0000 -0.0000 11.9272 -67.8545 -6.5881
1.0936 17.2133 -0.0331 36.8770 -97.5891 -39.7896 0.0000 0.0000 0.0000 -16.2757 -10.8526 -27.4978 5.0038 13.3881 40.8392 0.2091 -1.0218 -8.3375 0.6178 -5.0303 -13.9949 0.0000 0.0000 0.0000 26.1285 -1.4908 19.2504 -2.8462 -10.4419 30.4199 -0.0026 0.7652 -0.9771 -4.0433 12.2178 -36.5068 5.5986 2.2390 8.1189 -2.3839 3.3795 0.1879 -6.0213 1.5470 -3.8884 4.8651 -0.6164 0.3142 0.0240 -0.8270 0.5527 -0.7946 -0.4107 0.0970 0.0000 -0.0000 0.0000 -85.9905 28.0450 -88.0131 5.0436 -8.6581 -0.3820 -0.0000 -0.0000 91.2558 18.8659 18.3225 6.1313 -7.1250 0.0000 -0.0000 -9.0578 49.0538 -0.9123 0.0000 -0.0000 0.0000 87.3646 15.8555 49.7573 -34.2212 44.2479 -14.2672 0.0000 0.0000 13.4003 -25.4181 -35.0241 15.2558 7.1250 -0.0000 -0.0000 10.7274 -67.5018 -5.8330
0.6919 17.2624 -0.0009 32.7367 -96.8073 -35.6540 0.0000 0.0000 0.0000 -17.8813 -10.8165 -26.0377 5.0520 13.4421 41.0469 0.2675 -1.7142 -9.3210 0.7294 -5.4567 -15.2157 0.0000 0.0000 0.0000 25.2369 -0.6058 15.9845 -4.1489 -12.3560 37.0031 -0.1357 -1.0558 6.6649 -2.7742 10.3203 -30.0203 4.5309 2.0990 8.1288 -2.6210 3.0788 0.1541 -5.6370 1.4081 -4.0142 4.2159 -0.5798 -0.0982 0.8465 -0.8244 1.2862 -0.4352 -0.3974 0.3934 -0.0000 -0.0000 0.0000 -86.4390 26.1502 -78.4420 4.9022 -8.4194 -0.3610 -0.0000 -0.0000 82.9876 17.9792 20.1324 6.3733 -7.1250 0.0000 -0.0000 -10.5009 50.7608 -1.5049 -0.0000 -0.0000 0.0000 87.4813 13.3224 49.8797 -33.1338 43.4326 -13.5140 0.0000 0.0000 12.7089 -25.7264 -35.3391 15.5732 7.1250 -0.0000 -0.0000 10.6233 -67.9063 -5.8735
0.3043 17.3220 0.0329 27.2011 -96.1951 -30.0352 0.0000 0.0000 0.0000 -19.4447 -10.3637 -24.5338 4.9610 13.3397 40.6539 0.3203 -2.3461 -10.1357 0.8435 -5.8580 -16.3729 0.0000 0.0000 0.0000 24.3371 0.5205 12.5618 -5.5484 -13.9759 43.1410 -0.5794 -3.8363 13.5853 -1.1797 6.8933 -19.3996 3.5812 2.1019 8.0849 -2.9119 2.9739 0.0648 -5.3944 1.3640 -4.1284 4.3692 -0.4336 -0.4285 1.0089 -0.6687 1.9240 -0.4145 -0.3063 0.6463 0.0000 0.0000 0.0000 -86.6419 24.2710 -68.5038 4.7058 -8.0875 -0.3329 -0.0000 -0.0000 74.5897 17.9401 20.8884 6.5849 -7.1250 0.0000 -0.0000 -10.8111 51.5201 -1.7533 0.0000 0.0000 0.0000 87.5794 10.7830 49.6906 -31.5980 42.2243 -12.4698 0.0000 0.0000 11.9751 -25.3242 -35.4679 15.3540 7.1250 -0.0000 -0.0000 11.2695 -67.9105 -6.2353
-0.0723 17.3890 0.0615 19.2710 -95.8718 -22.0227 0.0000 0.0000 0.0000 -20.9644 -9.4166 -23.0332 4.7951 13.1492 39.9297 0.3633 -3.1041 -10.7418 0.8237 -5.7905 -16.1778 0.0000 0.0000 0.0000 23.3896 1.9573 9.1878 -6.9912 -15.3244 48.8408 -1.1131 -5.0318 18.9030 -0.3528 3.8160 -10.5596 2.5775 2.2250 8.0410 -3.2442 3.0190 -0.0591 -5.1816 1.3943 -4.2611 5.0010 -0.4558 -0.2293 0.7072 -0.6991 2.2797 -0.6142 -0.3144 0.7217 0.0000 -0.0000 0.0000 -86.7654 22.4898 -58.4593 4.6313 -7.9613 -0.3225 -0.0000 -0.0000 65.9512 18.2244 20.2268 6.4944 -7.1250 0.0000 -0.0000 -10.2953 50.8970 -1.5095 0.0000 -0.0000 0.0000 87.8210 8.2516 49.1862 -29.6807 40.6181 -11.2012 0.0000 0.0000 11.5607 -24.2762 -35.0389 14.5175 7.1250 -0.0000 -0.0000 12.1990 -67.1739 -6.5512
-0.4403 17.4542 0.0881 10.0331 -95.7168 -12.8858 0.0000 0.0000 0.0000 -22.5106 -8.1385 -21.3432 4.5739 12.8873 38.9479 0.3854 -3.9213 -11.0389 0.8222 -5.7856 -16.1637 0.0000 0.0000 0.0000 22.2967 3.3416 6.0103 -8.4282 -16.4253 54.0907 -1.3581 -4.5137 21.0114 -0.1211 2.2437 -6.1797 1.4687 2.2083 8.1718 -3.5106 2.8672 -0.0680 -4.8245 1.3311 -4.4007 5.4566 -0.2776 -0.1187 0.5197 -0.4611 2.4453 -0.7483 -0.1912 0.7602 -0.0000 -0.0000 0.0000 -87.2404 20.8617 -48.9429 4.8866 -8.3931 -0.3588 -0.0000 -0.0000 57.0915 18.2599 18.7337 6.0489 -7.1250 0.0000 -0.0000 -9.7647 49.3823 -1.0643 -0.0000 -0.0000 0.0000 88.0233 6.0898 49.0142 -27.3901 38.5486 -9.7412 0.0000 0.0000 11.2993 -22.8313 -34.5586 13.4315 7.1250 -0.0000 -0.0000 13.5452 -66.2807 -7.0079
-0.7955 17.5136 0.1150 2.0243 -95.6915 -5.0501 0.0000 0.0000 0.0000 -23.8382 -6.7920 -19.5934 4.3216 12.5764 37.8029 0.3982 -4.6411 -11.2354 0.9409 -6.1783 -17.3027 0.0000 0.0000 0.0000 21.2866 4.5979 2.8702 -9.7981 -17.2948 58.8115 -1.0179 -2.4412 18.4068 -0.6528 5.1680 -14.3883 0.4738 2.0065 8.4700 -3.6453 2.4820 0.0028 -4.3714 1.1528 -4.5663 5.1303 -0.1436 0.2811 0.8829 -0.2650 2.3938 -0.5772 -0.0969 0.6811 0.0000 0.0000 0.0000 -87.9450 19.4125 -39.9045 5.6032 -9.5988 -0.4708 -0.0000 -0.0000 48.2880 17.8353 17.2510 5.4504 -7.1250 0.0000 -0.0000 -9.7195 47.8059 -0.6789 0.0000 0.0000 0.0000 88.0551 4.3860 49.2160 -24.7874 35.9859 -8.1647 0.0000 0.0000 11.3935 -21.3555 -34.0069 12.3355 7.1250 -0.0000 -0.0000 14.8193 -65.3250 -7.3532
-1.1403 17.5635 0.1411 -6.0572 -95.6552 2.8493 0.0000 0.0000 0.0000 -25.1080 -5.4509 -17.8603 4.0655 12.2471 36.6118 0.4039 -5.5322 -11.3801 1.0511 -6.5193 -18.2989 0.0000 0.0000 0.0000 20.2622 5.7530 -0.2799 -11.0453 -17.9572 62.9285 -0.7212 -0.4939 15.8876 -0.6289 5.0744 -14.1208 -0.5121 1.6892 8.8195 -3.7265 1.9394 0.1000 -3.8455 0.8986 -4.7336 5.0851 0.2835 0.2084 0.7843 0.3003 2.5053 -0.5978 0.1875 0.7400 0.0000 0.0000 0.0000 -88.5898 18.1167 -23.3907 6.8584 -11.6860 -0.7027 -0.0000 -0.0000 32.4873 18.3255 17.6255 5.7270 -7.1250 0.0000 -0.0000 -9.3659 48.2591 -0.7592 0.0000 0.0000 0.0000 87.9341 2.9179 49.2945 -22.0679 33.0537 -6.6228 0.0000 0.0000 12.4313 -20.0546 -33.3575 11.3500 7.1250 -0.0000 -0.0000 15.7674 -64.3402 -7.4742
-1.4804 17.6034 0.1662 -15.7302 -95.5660 12.2421 0.0000 0.0000 0.0000 -26.4679 -4.1899 -16.0360 3.8328 11.9346 35.5009 0.3974 -6.6861 -11.4619 0.9857 -6.3195 -17.7143 0.0000 0.0000 0.0000 19.0879 6.7309 -3.3684 -12.1011 -18.4330 66.3088 -0.4970 0.8603 13.6561 -0.5082 4.5695 -12.6846 -1.5558 1.4009 9.1925 -3.8404 1.4186 0.2191 -3.3190 0.6567 -4.8742 4.9133 0.5920 0.4672 0.8398 0.7267 2.4780 -0.5493 0.3978 0.6961 0.0000 0.0000 0.0000 -88.8593 16.7656 -11.4313 8.4810 -14.3296 -1.0680 -0.0000 -0.0000 22.0874 19.7065 17.2527 6.0639 -7.1250 0.0000 -0.0000 -7.9527 48.0751 -0.6069 0.0000 0.0000 0.0000 87.8029 1.3486 48.4078 -19.4830 30.0145 -5.2703 0.0000 0.0000 14.7088 -18.6316 -33.1895 10.4568 7.1250 -0.0000 -0.0000 17.2557 -63.7955 -7.9803
-1.8122 17.6311 0.1905 -25.0247 -95.4770 21.3087 0.0000 0.0000 0.0000 -27.6734 -3.2623 -14.2808 3.6418 11.6678 34.5667 0.3848 -7.5786 -11.4889 0.8373 -5.8370 -16.3121 0.0000 0.0000 0.0000 17.9838 7.5856 -6.4910 -12.9222 -18.7539 68.8835 -0.3341 1.9786 11.8239 -0.3105 3.5823 -9.9043 -2.4996 1.1615 9.5347 -3.8968 0.9725 0.3236 -2.7936 0.4521 -4.9933 5.1122 0.8918 0.8073 0.5400 1.1603 2.2052 -0.6747 0.6087 0.5686 -0.0000 -0.0000 0.0000 -88.9029 15.2290 -2.8955 10.3577 -17.2972 -1.5797 -0.0000 -0.0000 15.7349 21.1212 16.5239 6.2698 -7.1250 0.0000 -0.0000 -6.4269 47.5183 -0.4009 -0.0000 -0.0000 0.0000 87.6315 -0.3421 46.3817 -17.2140 27.1391 -4.1845 0.0000 0.0000 17.8938 -17.1676 -33.8170 9.7557 7.1250 -0.0000 -0.0000 19.4901 -63.9926 -9.1404
-2.1370 17.6527 0.2165 -29.7823 -95.1050 26.0574 0.0000 0.0000 0.0000 -28.2086 -2.7135 -12.7754 3.5009 11.4648 33.8640 0.3656 -8.3479 -11.4521 0.7277 -5.4505 -15.1981 0.0000 0.0000 0.0000 17.5340 8.3705 -9.6824 -13.4716 -18.9459 70.5841 -0.1612 2.5861 8.9952 -0.3475 3.7875 -10.4795 -2.8458 0.8526 9.7092 -3.7440 0.5280 0.4362 -2.3784 0.2425 -4.9909 4.8402 0.8087 1.2307 0.4794 1.0789 2.0401 -0.6493 0.5620 0.4441 0.0000 -0.0000 0.0000 -88.9083 13.4588 3.4756 12.4822 -20.5239 -2.2685 -0.0000 -0.0000 11.9576 22.2743 15.9445 6.4200 -7.1250 0.0000 -0.0000 -5.2048 47.0697 -0.2665 0.0000 -0.0000 0.0000 87.3624 -1.8933 43.3409 -15.1239 24.3184 -3.2768 0.0000 0.0000 21.7327 -16.4777 -34.4315 9.4946 7.1250 -0.0000 -0.0000 20.8656 -64.3747 -9.9979
-2.4615 17.6706 0.2422 -32.2798 -94.3536 28.7025 0.0000 0.0000 0.0000 -28.2407 -2.3376 -11.5359 3.4185 11.3436 33.4476 0.3314 -9.4300 -11.3827 0.5792 -4.8735 -13.5483 0.0000 0.0000 0.0000 17.5296 8.8817 -12.8928 -13.7227 -19.0278 71.3560 -0.0681 2.3879 6.4085 -0.2208 3.0251 -8.3487 -2.7185 0.4779 9.6607 -3.4632 0.0761 0.5900 -2.0898 0.0223 -4.8104 4.5823 0.6122 1.1793 0.3634 0.8120 2.2282 -0.6421 0.4302 0.5035 -0.0000 0.0000 0.0000 -88.7468 11.3654 8.4381 14.6418 -23.6447 -3.0808 -0.0000 -0.0000 10.3664 23.4271 15.5396 6.6214 -7.1250 0.0000 -0.0000 -4.0329 46.7992 -0.1793 -0.0000 0.0000 0.0000 87.0960 -3.2704 38.9687 -13.1169 21.4582 -2.4959 0.0000 0.0000 26.3558 -15.8812 -34.8343 9.2304 7.1250 -0.0000 -0.0000 21.9452 -64.5802 -10.6434
